# xmcd CD database file
#
# Track frame offsets:
#	187
#	16127
#	38212
#	57677
#	74817
#	96075
#	115322
#	130522
#	150362
#	172155
#
# Disc length: 2576 seconds
#
# Revision: 1
# Processed by: cddbd v1.5.2PL0 Copyright (c) Steve Scherf et al.
# Submitted via: CDex 1.70beta2
#
DISCID=870a0e0a
DTITLE=横関敦プロジェクト - Raid
DYEAR=1993
DGENRE=Heavy Metal
TTITLE0=Tears Of Sphinx
TTITLE1=More Than Enough
TTITLE2=Straight To Your Heart
TTITLE3=Camel
TTITLE4=All  The Way To Heaven
TTITLE5=Silence,Storm And Sunrise
TTITLE6=A Little Bit More
TTITLE7=Heartbreak
TTITLE8=Mama Again
TTITLE9=Raid
EXTD=YEAR: 1993
EXTT0=
EXTT1=
EXTT2=
EXTT3=
EXTT4=
EXTT5=
EXTT6=
EXTT7=
EXTT8=
EXTT9=
PLAYORDER=
